<svg xmlns="http://www.w3.org/2000/svg" version="1.1" style="enable-background:new 0 0 65 32;" xml:space="preserve" width="65" height="32"><rect id="backgroundrect" width="100%" height="100%" x="0" y="0" fill="none" stroke="none"/>
   <style type="text/css">
	.st0{fill:#005DA6;}
	.st1{fill:#666666;}
	.st2 {fill:#03a9f4; fill-opacity:1; stroke:none;}
	.st3 {fill:#ff7900; fill-opacity:1; stroke:none;}
   </style>
   
   
   
   
   
   
<g class="currentLayer" style=""><title>Layer 1</title><polygon class="st0" points="28,31 28,14 22,14 22,31 19,31 19,8 13,8 13,31 10,31 10,20 4,20 4,31 1,31 1,0 0,0 0,32 32,32 32,31   " id="svg_1" transform="rotate(89.97250366210938 15.999999999999998,16) "/><polygon class="st1" points="60.62962859869003,31.06172925978899 60.62962859869003,14.061728306114674 54.62962859869003,14.061728306114674 54.62962859869003,31.06172925978899 51.62962859869003,31.06172925978899 51.62962859869003,8.061728306114674 45.62962859869003,8.061728306114674 45.62962859869003,31.06172925978899 42.62962859869003,31.06172925978899 42.62962859869003,20.06172925978899 36.62962859869003,20.06172925978899 36.62962859869003,31.06172925978899 33.62962859869003,31.06172925978899 33.62962859869003,0.06172839179635048 32.62962859869003,0.06172839179635048 32.62962859869003,32.06172925978899 64.62962859869003,32.06172925978899 64.62962859869003,31.06172925978899 " id="svg_2" transform="rotate(90.18163299560547 48.629627227783196,16.061727523803714) "/><rect class="st2" width="6" height="23" x="9.54321002960205" y="4.4814816378057" id="svg_3" transform="rotate(-90.05227661132812 12.54321002960205,15.981480598449707) "/><rect class="st2" style="opacity:0.5;" width="6" height="23" x="42.172839641571045" y="4.543210029602051" id="svg_4" transform="rotate(-90.08455657958984 45.1728401184082,16.043210983276367) "/><rect class="st2" style="opacity:0.5;" width="6" height="23" x="42.049383010715246" y="4.604938507080078" id="svg_9" transform="rotate(90.37774658203125 45.049381256103516,16.104938507080075) "/><rect class="st3" width="6" height="17" x="6.567901849746704" y="16.46913567185402" id="svg_5" transform="rotate(-89.85572052001953 9.567901611328129,24.96913528442383) "/><rect class="st3" style="opacity:0.5;" width="6" height="17" x="39.19753170013428" y="16.654320869594812" id="svg_6" transform="rotate(90.30581665039062 42.197532653808594,25.154321670532227) "/></g></svg>