<svg xmlns="http://www.w3.org/2000/svg" version="1.1" style="enable-background:new 0 0 16 16;" xml:space="preserve" width="16" height="16"><rect id="backgroundrect" width="100%" height="100%" x="0" y="0" fill="none" stroke="none"/>
   <style type="text/css">
	.st0 {fill:#005DA6;}
	.st1 {fill:#03a9f4; fill-opacity:1; stroke:none;}
	.st2 {fill:#ff7900; fill-opacity:1; stroke:none;}
   </style>
   
   
   
   
<g class="currentLayer" style=""><title>Layer 1</title><path class="st0" d="M16,16" id="svg_1"/><polygon class="st0" points="13,15 13,5 11,5 11,15 9,15 9,2 7,2 7,15 5,15 5,8 3,8 3,15 1,15 1,0 0,0 0,16 16,16 16,15 " id="svg_2" transform="rotate(90.52323150634766 8,8) "/><rect class="st1" width="2" height="13" x="6.4615384340286255" y="1.4615384340286255" id="svg_3" transform="rotate(90.28224182128906 7.461538314819336,7.961538314819335) "/><rect class="st2" width="2" height="10" x="5.153846263885498" y="6.923076868057251" id="svg_4" transform="rotate(-89.99999237060547 6.153846263885497,11.92307662963867) "/></g></svg>