<svg xmlns="http://www.w3.org/2000/svg" version="1.1" width="48" height="48" style="" xml:space="preserve"><rect id="backgroundrect" width="100%" height="100%" x="0" y="0" fill="none" stroke="none"/>
  <style type="text/css">
	.st0 {fill:#005DA6;}
  .st1 {fill:#03a9f4; fill-opacity:1; stroke:none;}
	.st2 {fill:#ff7900; fill-opacity:1; stroke:none;}
  </style>
  
  
  
<g class="currentLayer" style=""><title>Layer 1</title><polygon class="st0" points="42,46 42,21 33,21 33,46 28.5,46 28.5,12 19.5,12 19.5,46 15,46 15,30 6,30 6,46 2,46 2,0 1.5,0 0,0   0,46 0,48 2,48 48,48 48,46.5 48,46 " id="svg_1" transform="rotate(89.9217529296875 23.999999999999996,24.000000000000007) "/><rect class="st1 selected" width="9" height="25" x="10.165992736816406" y="24.805667877197266" id="svg_2" transform="rotate(-90.20893096923828 14.665992736816406,37.305667877197266) "/><rect class="st2" width="9" height="34" x="14.5607288479805" y="6.979757189750671" id="svg_3" transform="rotate(-89.78316497802734 19.06072998046875,23.97975730895996) "/></g></svg>